<svg xmlns="http://www.w3.org/2000/svg" viewBox="0 0 1293.1 1157.1"><defs><style>.cls-1{fill:#fff;}.cls-2{fill:#fafaff;}.cls-3{fill:#adadad;}</style></defs><title>Asset 1</title><g id="Layer_2" data-name="Layer 2"><g id="Layer_1-2" data-name="Layer 1"><g id="Layer_1-3" data-name="Layer 1"><path class="cls-1" d="M1227.2,40A25.95,25.95,0,0,1,1253,65.8V1091.3a25.95,25.95,0,0,1-25.8,25.8H65.8A25.95,25.95,0,0,1,40,1091.3V65.8A25.95,25.95,0,0,1,65.8,40H1227.2m0-40H65.8A66,66,0,0,0,0,65.8V1091.3a66,66,0,0,0,65.8,65.8H1227.3a66,66,0,0,0,65.8-65.8V65.8A66.13,66.13,0,0,0,1227.2,0Z"/><circle class="cls-1" cx="873.5" cy="257.5" r="124.5"/></g><g id="Layer_5" data-name="Layer 5"><path class="cls-2" d="M1227.2,1157H65.8A66,66,0,0,1,0,1091.2V879.8A66,66,0,0,1,65.8,814H1227.3a66,66,0,0,1,65.8,65.8v211.5A66.11,66.11,0,0,1,1227.2,1157Z"/></g><g id="Layer_3" data-name="Layer 3"><path class="cls-1" d="M762.1,746.5l-380-476.9c-17.6-22-46.1-16.8-64.6,11.2L35.4,706C10.5,743.6-3.8,810.4,4.7,856.4L808.4,976.8C833.8,912.6,810.6,807.4,762.1,746.5Z"/></g><g id="Layer_4" data-name="Layer 4"><path class="cls-1" d="M527.3,945.4c-22,1.9-40.6-16.6-38.4-38.5,1.3-12.7,7.8-25.4,19.3-35.3L934,508.4c17.6-15,45.9-11.8,62.9,6.7L1282,824.8a12.66,12.66,0,0,1,1.1,1.3c18.3,21.8,3.7,55.3-24.7,57.7Z"/></g><g id="Layer_6" data-name="Layer 6"><path class="cls-3" d="M1133,1088H187a39.11,39.11,0,0,1-39-39h0a39.05,39.05,0,0,1,39-39h946a39.05,39.05,0,0,1,39,39h0A39.05,39.05,0,0,1,1133,1088Z"/></g><g id="Layer_7" data-name="Layer 7"><path class="cls-3" d="M608,937H174a39.11,39.11,0,0,1-39-39v-9a39.11,39.11,0,0,1,39-39H608a39.11,39.11,0,0,1,39,39v9A39.05,39.05,0,0,1,608,937Z"/></g></g></g></svg>